<?xml version="1.0" encoding="utf-8"?>
<!-- Generator: Adobe Illustrator 22.0.1, SVG Export Plug-In . SVG Version: 6.00 Build 0)  -->
<svg version="1.1" id="Layer_1" xmlns="http://www.w3.org/2000/svg" xmlns:xlink="http://www.w3.org/1999/xlink" x="0px" y="0px"
	 viewBox="0 0 191.8 175.3" style="enable-background:new 0 0 191.8 175.3;" xml:space="preserve">
<style type="text/css">
	.st0{fill:#306792;}
	.st1{fill:#414143;}
	.st2{display:none;fill:#FFFFFF;enable-background:new    ;}
	.st3{font-family:'GothamBold';}
	.st4{font-size:28.6866px;}
	.st5{font-family:'Avenir-Black';}
	.st6{font-size:27.3827px;}
</style>
<g>
	<path class="st0" d="M117.8,13.7c2.2,0,2.4,0.7,1.4,2.4c-3.7,6.7-7.3,13.5-11,20.3c-0.7,1.3-1.7,2-3.2,1.9c-2.5-0.1-5,0-7.5,0
		c-18.3,0-36.7,0-55,0c-5,0-9.3,3.5-10.1,8c-0.9,5.4,3.5,10.4,9.2,10.4c17.5,0,35,0,52.5,0c2.6,0,2.8,0.4,1.6,2.7
		c-3.4,6.3-7,12.4-10.2,18.8c-1.1,2.3-2.4,2.9-4.8,2.9c-12.7-0.1-25.5,0-38.2,0c-7.4,0.1-12.2,6.9-9.1,13.1c1.9,3.8,5.4,5.6,9.6,5.6
		c9.4,0,18.8,0,28.2,0c1.1,0,2.7-0.3,1.6,1.8c-3.8,7-7.6,14-11.4,21c-0.4,0.9-1.1,1.4-2.1,1.4c-8.1-0.4-16.4,1-24.4-0.9
		c-12-2.8-20.4-10.2-24.4-21.7C6.8,90.8,8.4,80.5,15,71.3c1.1-1.5,1.1-2.6,0-4.1c-6.2-8.7-7.8-18.3-4.9-28.6
		C14.1,24.2,27.4,14,42.4,14c12.2,0,24.5,0,36.7,0C92,14,104.9,14,117.8,13.7z"/>
	<path class="st1" d="M146.9,99.7c7.7,0,12.8-7.5,9.4-13.8c-1.9-3.5-5.2-4.8-9-4.8c-17.2,0-34.3,0-51.5,0c-2.9,0-3-0.2-1.7-2.7
		c3.5-6.4,7-12.8,10.4-19.3c0.9-1.8,2.1-2.4,4.1-2.4c13,0.1,26,0,39,0c5.2,0,9.5-3.9,9.7-8.5c0.2-5.4-4-9.8-9.6-9.8
		c-9.7,0-19.3,0-29,0c-1.8,0.1-2.8-0.1-1.6-2.3c3.8-6.8,7.5-13.7,11.2-20.6c0.7-1.2,1.5-1.6,2.8-1.6c4,0,8,0.1,12,0
		c4.4,0,8.8-0.1,13.1,1.2c22.6,6.8,32.2,32,18.7,51.5c-1.2,1.7-1.1,2.8,0,4.4c8.4,12,8.3,27.1-0.1,39c-4.7,6.6-11.1,10.6-18.7,12.9
		c-2.6,0.8-21.1,1.2-23.2,1.2c-20.2,0-40.3,0-60.5,0c-2.9,0-3-0.2-1.6-2.7c3.6-6.5,7.1-13,10.6-19.5c0.8-1.5,1.8-2.1,3.5-2.1
		c10.3,0,20.7,0,31,0S136.5,99.9,146.9,99.7z"/>
</g>
<text transform="matrix(1.6848 0 0 1 88.3003 175.1807)" class="st2 st3 st4">.</text>
<text transform="matrix(1.087 0 0 1 28.0298 158.6411)" class="st1 st5 st6">beyond </text>
<text transform="matrix(1.087 0 0 1 143.2295 158.6411)" class="st0 st5 st4">8</text>
</svg>
